<svg width="383" height="326" viewBox="0 0 383 326" fill="none" xmlns="http://www.w3.org/2000/svg">
<path d="M219.144 325.805C309.639 325.805 383 253.014 383 163.221C383 73.4282 309.639 0.636841 219.144 0.636841C128.649 0.636841 55.2876 73.4282 55.2876 163.221C55.2876 253.014 128.649 325.805 219.144 325.805Z" fill="#B3B1AD" fill-opacity="0.4"/>
<path d="M242.262 75.7167H156.089V250.725H285.128V121.847L242.262 75.7167Z" fill="white"/>
<path d="M242.262 121.847H285.128L242.262 75.7167V121.847Z" fill="#E6E9EE"/>
<path d="M267.894 131.358H173.545V138.729H267.894V131.358Z" fill="#4C8B81"/>
<path d="M267.893 158.227H173.545V165.599H267.893V158.227Z" fill="#4C8B81"/>
<path d="M267.893 185.334H173.545V192.706H267.893V185.334Z" fill="#4C8B81"/>
<path d="M267.893 212.204H173.545V219.576H267.893V212.204Z" fill="#4C8B81"/>
<path d="M209.561 225.045C210.445 224.807 216.852 222.429 222.818 223.38C222.818 219.813 225.691 214.82 227.9 212.442L234.971 204.833L231.656 201.266L228.342 197.699L221.272 205.309C219.062 207.686 214.422 210.778 211.107 210.778C211.991 217.198 209.782 224.093 209.561 225.045Z" fill="#FFD05B"/>
<path d="M220.829 201.029L231.877 212.918L238.285 206.973L226.353 194.371L220.829 201.029Z" fill="#324A5E"/>
<path d="M216.852 218.862C217.584 218.862 218.178 218.224 218.178 217.436C218.178 216.648 217.584 216.009 216.852 216.009C216.12 216.009 215.526 216.648 215.526 217.436C215.526 218.224 216.12 218.862 216.852 218.862Z" fill="#324A5E"/>
<path d="M238.285 206.973C244.03 201.98 257.287 188.664 263.695 181.768C282.697 161.319 318.492 116.14 314.515 112.098C310.759 108.055 268.777 146.576 249.775 166.788C243.367 173.683 230.772 187.95 226.353 194.133L238.285 206.973Z" fill="#FF7058"/>
<path d="M216.989 217.653L216.676 217.316L209.489 225.051L209.802 225.387L216.989 217.653Z" fill="#324A5E"/>
<path d="M210.002 225.758C210.49 225.758 210.886 225.332 210.886 224.807C210.886 224.282 210.49 223.856 210.002 223.856C209.514 223.856 209.118 224.282 209.118 224.807C209.118 225.332 209.514 225.758 210.002 225.758Z" fill="#324A5E"/>
<path d="M51.521 294.88C79.6174 294.88 102.394 272.28 102.394 244.402C102.394 216.524 79.6174 193.924 51.521 193.924C23.4246 193.924 0.647949 216.524 0.647949 244.402C0.647949 272.28 23.4246 294.88 51.521 294.88Z" fill="#FF7058"/>
</svg>
